<svg xmlns="http://www.w3.org/2000/svg" viewBox="0 0 14 14" width="14" height="14">
	<path d="M 2.54 1.88 C 2.21 2.04, 2.07 2.18, 1.90 2.54 L 1.78 2.82 1.78 7.00 L 1.78 11.18 1.90 11.46 C 2.07 11.82, 2.21 11.96, 2.54 12.12 C 2.84 12.26, 3.18 12.28, 3.53 12.19 C 3.65 12.16, 5.52 11.22, 7.68 10.10 C 11.99 7.88, 12.04 7.84, 12.19 7.32 C 12.34 6.78, 12.12 6.29, 11.58 5.94 C 11.13 5.65, 3.84 1.91, 3.56 1.82 C 3.20 1.71, 2.85 1.73, 2.54 1.88 M 2.88 2.68 C 2.63 2.84, 2.63 2.88, 2.63 7.00 C 2.63 11.21, 2.62 11.19, 2.92 11.33 C 2.99 11.36, 3.14 11.37, 3.24 11.35 C 3.48 11.31, 10.96 7.44, 11.20 7.23 C 11.43 7.05, 11.41 6.91, 11.14 6.71 C 10.79 6.45, 3.39 2.67, 3.18 2.65 C 3.07 2.63, 2.94 2.65, 2.88 2.68"  fill="none" stroke="#000000" stroke-width="1.2" stroke-linecap="round" stroke-linejoin="round"/>
</svg>