<svg xmlns="http://www.w3.org/2000/svg" width="14" height="14" viewBox="0 0 14 14" version="1.1">
	<path d="M 9.17 0.85 C 8.37 0.99, 7.64 1.52, 7.25 2.25 C 6.94 2.84, 6.87 3.53, 7.05 4.23 C 7.11 4.44, 7.14 4.62, 7.14 4.62 C 7.13 4.63, 6.76 4.88, 6.32 5.19 C 5.87 5.50, 5.49 5.75, 5.48 5.75 C 5.47 5.75, 5.32 5.66, 5.15 5.56 C 4.50 5.13, 3.66 5.08, 2.98 5.42 C 2.51 5.65, 2.15 6.01, 1.92 6.48 C 1.58 7.16, 1.63 8.00, 2.05 8.64 C 2.73 9.70, 4.15 10.00, 5.17 9.31 L 5.39 9.16 6.44 9.94 C 7.21 10.51, 7.49 10.75, 7.46 10.80 C 7.45 10.84, 7.42 11.07, 7.41 11.30 C 7.39 11.85, 7.50 12.19, 7.86 12.57 C 8.76 13.56, 10.30 13.30, 10.86 12.07 C 10.95 11.87, 10.97 11.73, 10.97 11.38 C 10.97 11.02, 10.95 10.88, 10.86 10.68 C 10.61 10.14, 10.17 9.77, 9.60 9.62 C 9.19 9.52, 8.82 9.56, 8.41 9.76 C 8.24 9.84, 8.08 9.90, 8.06 9.89 C 8.03 9.88, 7.56 9.54, 7.01 9.13 C 6.16 8.50, 6.01 8.36, 6.03 8.28 C 6.21 7.66, 6.22 7.36, 6.07 6.70 C 6.05 6.59, 6.12 6.53, 6.89 5.99 C 7.70 5.43, 7.73 5.42, 7.83 5.50 C 8.05 5.70, 8.50 5.95, 8.80 6.05 C 9.26 6.21, 9.99 6.21, 10.45 6.05 C 11.57 5.67, 12.30 4.66, 12.30 3.50 C 12.30 2.08, 11.21 0.93, 9.80 0.83 C 9.59 0.82, 9.31 0.83, 9.17 0.85 M 9.24 1.85 C 8.76 1.97, 8.36 2.30, 8.11 2.76 C 7.99 3.00, 7.98 3.08, 7.98 3.50 C 7.98 3.92, 7.99 4.00, 8.12 4.24 C 8.43 4.84, 8.97 5.17, 9.63 5.17 C 10.28 5.17, 10.82 4.84, 11.13 4.24 C 11.26 4.00, 11.27 3.92, 11.27 3.50 C 11.27 3.08, 11.26 3.00, 11.14 2.76 C 10.84 2.21, 10.34 1.87, 9.74 1.83 C 9.57 1.81, 9.34 1.83, 9.24 1.85 M 3.50 6.26 C 3.23 6.35, 2.83 6.78, 2.75 7.06 C 2.66 7.41, 2.70 7.80, 2.88 8.08 C 3.31 8.78, 4.23 8.89, 4.81 8.31 C 5.39 7.72, 5.28 6.81, 4.58 6.38 C 4.38 6.26, 4.27 6.23, 4.01 6.22 C 3.82 6.21, 3.60 6.23, 3.50 6.26 M 8.85 10.66 C 8.54 10.82, 8.40 11.04, 8.40 11.38 C 8.40 12.22, 9.53 12.49, 9.90 11.73 C 10.03 11.46, 10.03 11.29, 9.90 11.02 C 9.70 10.61, 9.24 10.46, 8.85 10.66"   stroke="#374151" stroke-width="1.2" stroke-linecap="round" stroke-linejoin="round"/>
</svg>