<svg xmlns="http://www.w3.org/2000/svg" width="14" height="14" viewBox="0 0 14 14" version="1.1">
	<path d="M 5.20 3.33 C 4.92 3.38, 4.84 3.41, 4.67 3.56 C 4.38 3.82, 4.35 3.91, 4.34 4.75 C 4.33 5.49, 4.33 5.52, 4.45 5.61 C 4.58 5.72, 4.69 5.72, 4.83 5.63 C 4.92 5.56, 4.94 5.48, 4.97 4.87 C 5.00 4.34, 5.02 4.16, 5.08 4.09 C 5.16 4.01, 5.28 4.00, 6.40 4.00 L 7.64 4.00 7.66 4.72 C 7.67 5.40, 7.68 5.44, 7.81 5.64 C 8.04 5.98, 8.26 6.05, 9.07 6.05 L 9.75 6.05 9.75 7.88 C 9.75 9.69, 9.74 9.86, 9.58 9.96 C 9.55 9.98, 8.56 10.00, 7.38 10.00 L 5.24 10.00 5.02 9.80 C 4.90 9.69, 4.76 9.60, 4.70 9.60 C 4.58 9.60, 4.35 9.81, 4.35 9.92 C 4.35 10.02, 4.56 10.30, 4.75 10.46 C 5.03 10.68, 5.35 10.71, 7.64 10.69 C 9.87 10.67, 9.82 10.68, 10.11 10.37 C 10.41 10.04, 10.40 10.11, 10.40 7.69 L 10.40 5.47 10.28 5.22 C 10.12 4.91, 8.71 3.54, 8.39 3.40 C 8.19 3.31, 8.06 3.30, 6.75 3.31 C 5.97 3.31, 5.27 3.32, 5.20 3.33 M 8.30 4.66 C 8.30 5.37, 8.29 5.37, 9.00 5.39 C 9.30 5.40, 9.55 5.39, 9.55 5.37 C 9.55 5.33, 8.84 4.62, 8.46 4.28 L 8.30 4.13 8.30 4.66 M 4.69 6.40 C 4.62 6.46, 4.34 6.74, 4.08 7.03 C 3.73 7.41, 3.60 7.59, 3.60 7.68 C 3.60 7.88, 4.71 9.00, 4.91 9.00 C 5.07 9.00, 5.25 8.84, 5.25 8.71 C 5.25 8.61, 5.03 8.27, 4.88 8.16 C 4.84 8.12, 4.81 8.07, 4.83 8.04 C 4.84 8.02, 5.42 8.00, 6.10 8.00 C 7.28 8.00, 7.36 7.99, 7.45 7.90 C 7.58 7.77, 7.58 7.62, 7.43 7.47 L 7.30 7.35 6.00 7.35 L 4.69 7.35 4.97 7.05 C 5.28 6.72, 5.32 6.57, 5.15 6.40 C 5.02 6.27, 4.86 6.27, 4.69 6.40"   stroke="#374151" stroke-width="1.2" stroke-linecap="round" stroke-linejoin="round"/>
</svg>